<svg width="22" height="18" viewBox="0 0 22 18" fill="none" xmlns="http://www.w3.org/2000/svg">
<path d="M0.75 8.75C0.75 4.97876 0.75 3.09315 1.92157 1.92157C3.09315 0.75 4.97876 0.75 8.75 0.75H12.75C16.5212 0.75 18.4069 0.75 19.5784 1.92157C20.75 3.09315 20.75 4.97876 20.75 8.75C20.75 12.5212 20.75 14.4069 19.5784 15.5784C18.4069 16.75 16.5212 16.75 12.75 16.75H8.75C4.97876 16.75 3.09315 16.75 1.92157 15.5784C0.75 14.4069 0.75 12.5212 0.75 8.75Z" stroke="#78D864" stroke-width="1.5"/>
<path d="M4.75 4.75L6.9089 6.54908C8.74553 8.07961 9.66385 8.84488 10.75 8.84488C11.8361 8.84488 12.7545 8.07961 14.5911 6.54908L16.75 4.75" stroke="#78D864" stroke-width="1.5" stroke-linecap="round"/>
</svg>
