<svg width="21" height="26" viewBox="0 0 21 26" fill="none" xmlns="http://www.w3.org/2000/svg">
<path d="M2.98354 10.4975L6.61983 5.52584C8.97032 2.31217 10.1456 0.705343 11.2421 1.0449C12.3386 1.38446 12.3386 3.35523 12.3386 7.29679V7.66843C12.3386 9.09006 12.3386 9.80088 12.7881 10.2467L12.8119 10.2698C13.2711 10.7063 14.0032 10.7063 15.4674 10.7063C18.1023 10.7063 19.4198 10.7063 19.865 11.5138C19.8724 11.5272 19.8796 11.5407 19.8865 11.5542C20.3068 12.3743 19.544 13.4172 18.0184 15.5031L14.3821 20.4746C12.0315 23.6883 10.8563 25.2952 9.75979 24.9556C8.66329 24.616 8.66332 22.6452 8.66338 18.7036L8.66338 18.3321C8.66341 16.9105 8.66342 16.1997 8.2139 15.7538L8.19012 15.7307C7.7309 15.2943 6.99879 15.2942 5.53456 15.2942C2.89965 15.2942 1.5822 15.2942 1.13694 14.4867C1.12957 14.4733 1.1224 14.4599 1.11544 14.4463C0.695126 13.6263 1.45793 12.5833 2.98354 10.4975Z" stroke="#78D864" stroke-width="2"/>
</svg>
