<svg width="24" height="27" viewBox="0 0 24 27" fill="none" xmlns="http://www.w3.org/2000/svg">
<path d="M15.0559 4.125C15.0559 5.85089 13.6879 7.25 12.0004 7.25C10.3128 7.25 8.94482 5.85089 8.94482 4.125C8.94482 2.39911 10.3128 1 12.0004 1C13.6879 1 15.0559 2.39911 15.0559 4.125Z" stroke="#78D864" stroke-width="2"/>
<path d="M1.00024 19.75L4.16442 18.1148C4.47238 17.9557 4.66691 17.6303 4.66691 17.2745C4.66691 13.6002 7.27965 10.4572 10.7862 9.85313C11.5844 9.71562 12.4161 9.71562 13.2143 9.85313C16.7208 10.4572 19.3336 13.6002 19.3336 17.2745C19.3336 17.6303 19.5281 17.9557 19.8361 18.1148L23.0002 19.75" stroke="#78D864" stroke-width="2" stroke-linecap="round" stroke-linejoin="round"/>
<path d="M8.94463 18.5L7.67141 20.2362C7.63254 20.2892 7.6131 20.3157 7.59354 20.341C7.27201 20.7567 6.82965 21.0571 6.33032 21.1988C6.29994 21.2074 6.26847 21.2155 6.20566 21.2316L4.39092 21.6956C3.11647 22.0214 2.22241 23.1925 2.22241 24.536C2.22241 25.3446 2.86328 26 3.65384 26H5.55575C6.28818 26 6.6544 26 7.00986 25.9573C7.84123 25.8573 8.64366 25.5838 9.36739 25.1536C9.67682 24.9696 9.96981 24.7449 10.5557 24.2955L10.778 24.125M10.778 24.125L13.2224 22.25M10.778 24.125L13.882 25.3155C14.6269 25.6012 14.9994 25.744 15.3843 25.836C15.5835 25.8836 15.7849 25.921 15.9877 25.9479C16.3797 26 16.7775 26 17.5731 26H20.3465C21.1371 26 21.778 25.3446 21.778 24.536C21.778 23.1925 20.8839 22.0214 19.6095 21.6956L17.7947 21.2316C17.7319 21.2155 17.7004 21.2075 17.6701 21.1988C17.1707 21.0571 16.7284 20.7567 16.4068 20.341C16.3873 20.3158 16.3678 20.2891 16.329 20.2362L15.0557 18.5" stroke="#78D864" stroke-width="2" stroke-linecap="round" stroke-linejoin="round"/>
</svg>
